<?xml version="1.0" encoding="UTF-8"?>
<!DOCTYPE svg PUBLIC "-//W3C//DTD SVG 1.1//EN" "http://www.w3.org/Graphics/SVG/1.1/DTD/svg11.dtd">
<svg xmlns="http://www.w3.org/2000/svg" version="1.1" width="1104px" height="1142px" style="shape-rendering:geometricPrecision; text-rendering:geometricPrecision; image-rendering:optimizeQuality; fill-rule:evenodd; clip-rule:evenodd" xmlns:xlink="http://www.w3.org/1999/xlink">
<g><path style="opacity:0.15" fill="white" d="M 617.5,-0.5 C 640.833,-0.5 664.167,-0.5 687.5,-0.5C 814.153,11.5137 926.486,57.6804 1024.5,138C 1053.82,163.153 1080.16,190.986 1103.5,221.5C 1103.5,223.833 1103.5,226.167 1103.5,228.5C 1068.48,355.644 995.482,454.477 884.5,525C 821.299,563.746 753.965,593.412 682.5,614C 665.19,618.937 647.857,623.77 630.5,628.5C 629.269,629.651 629.269,630.817 630.5,632C 697.79,667.053 742.624,720.886 765,793.5C 790.162,907.356 757.662,1000.86 667.5,1074C 613.895,1113.37 553.895,1135.87 487.5,1141.5C 468.5,1141.5 449.5,1141.5 430.5,1141.5C 274.158,1127.45 156.325,1053.12 77,918.5C 38.6049,849.98 14.6049,776.646 5,698.5C 2.72549,679.723 0.892157,661.056 -0.5,642.5C -0.5,619.167 -0.5,595.833 -0.5,572.5C 12.2488,436.374 63.7488,317.374 154,215.5C 263.37,96.2222 398.87,26.0555 560.5,5C 579.617,2.77006 598.617,0.936729 617.5,-0.5 Z M 615.5,67.5 C 681.294,66.2362 745.961,74.0695 809.5,91C 911.062,121.246 995.729,176.746 1063.5,257.5C 1053.64,297.557 1035.14,332.891 1008,363.5C 974.083,400.994 935.916,433.161 893.5,460C 792.012,523.082 682.346,564.249 564.5,583.5C 569.393,535.32 584.56,490.654 610,449.5C 651.593,384.573 706.093,333.406 773.5,296C 782.045,291.561 790.711,287.394 799.5,283.5C 800.586,279.845 800.586,276.178 799.5,272.5C 749.783,281.531 704.45,300.698 663.5,330C 605.985,372.505 559.485,424.672 524,486.5C 514.141,504.217 504.808,522.217 496,540.5C 483.974,444.293 500.641,353.293 546,267.5C 563.902,233.769 588.068,205.436 618.5,182.5C 617.366,179.93 616.532,177.264 616,174.5C 615.612,173.572 614.945,172.905 614,172.5C 590.753,182.756 569.92,196.589 551.5,214C 501.994,263.934 466.827,322.767 446,390.5C 429.518,442.208 421.518,495.208 422,549.5C 407.998,532.508 397.331,513.508 390,492.5C 365.931,419.936 361.931,346.269 378,271.5C 382.056,254.996 387.89,239.163 395.5,224C 393.385,220.882 390.885,218.048 388,215.5C 356.462,252.586 336.128,295.252 327,343.5C 310.452,436.38 325.285,523.88 371.5,606C 361.554,603.009 351.887,599.009 342.5,594C 273.243,555.242 227.576,497.742 205.5,421.5C 201.389,421.522 197.389,422.189 193.5,423.5C 193.313,506.287 225.646,573.121 290.5,624C 304.21,634.192 318.877,642.859 334.5,650C 323.96,654.31 312.96,656.977 301.5,658C 245.745,663.15 193.745,651.65 145.5,623.5C 142.65,625.427 139.983,627.594 137.5,630C 167.455,664.248 204.455,687.581 248.5,700C 286.858,709.873 325.858,714.373 365.5,713.5C 350.776,732.393 333.109,747.893 312.5,760C 264.791,787.347 213.457,802.347 158.5,805C 157.073,808.444 155.74,811.944 154.5,815.5C 173.846,822.577 193.846,825.577 214.5,824.5C 284.079,822.864 346.745,801.531 402.5,760.5C 405.256,829.412 383.756,889.412 338,940.5C 329.963,948.205 321.63,955.539 313,962.5C 314.181,966.188 316.681,968.855 320.5,970.5C 380.835,946.998 422.668,904.998 446,844.5C 454.053,821.622 459.886,798.288 463.5,774.5C 479.874,789.557 492.04,807.557 500,828.5C 517.836,877.115 516.336,925.115 495.5,972.5C 497.339,975.013 499.839,976.68 503,977.5C 517.168,964.202 528.168,948.536 536,930.5C 550.829,893.065 555.162,854.398 549,814.5C 544.883,785.531 537.716,757.364 527.5,730C 533.219,731.187 538.553,733.52 543.5,737C 568.571,753.735 588.405,775.235 603,801.5C 623.974,837.723 636.141,876.723 639.5,918.5C 641.833,918.5 644.167,918.5 646.5,918.5C 657.163,879.979 659.33,840.979 653,801.5C 639.088,738.26 602.921,692.76 544.5,665C 534.125,660.31 523.458,656.477 512.5,653.5C 522.783,684.15 514.783,708.65 488.5,727C 464.703,739.235 442.37,736.901 421.5,720C 402.9,700.925 398.067,678.759 407,653.5C 416.478,632.025 432.645,618.525 455.5,613C 481.523,607.427 507.523,607.761 533.5,614C 604.727,629.954 659.893,668.454 699,729.5C 724.705,776.092 733.705,825.759 726,878.5C 712.774,967.369 665.608,1030.87 584.5,1069C 523.638,1094.65 460.638,1101.65 395.5,1090C 317.865,1075.68 250.199,1042.02 192.5,989C 101.49,900.804 48.9897,793.304 35,666.5C 28.7648,591.575 39.7648,519.242 68,449.5C 114.066,336.11 186.899,243.943 286.5,173C 385.706,105.655 495.373,70.4883 615.5,67.5 Z"/></g>
</svg>
