<svg width="660" height="660" viewBox="0 0 660 660" fill="none" xmlns="http://www.w3.org/2000/svg">
<path d="M418.957 444.05C438.658 493.455 460.842 599.107 411.587 643.399C388.351 664.379 346.767 666.559 319.32 636.104C293.677 607.604 300.821 543.311 297.212 516.465C289.842 528.497 278.638 543.16 257.959 561.809C226.15 590.459 159.525 606.928 132.003 576.473C119.595 562.711 110.797 548.8 112.677 533.309C115.459 511.051 154.411 469.316 176.67 437.583C120.873 461.195 44.6982 477.212 16.7998 446.23C-4.25549 422.844 -7.03781 391.787 17.1758 369.98C45.2245 344.714 114.782 333.584 157.043 323.809C126.814 316.364 74.6268 261.395 54.8498 239.512C23.7932 205.072 23.9436 147.094 54.549 119.497C78.8379 97.539 174.94 182.738 242.618 229.36C211.637 194.995 218.179 43.9231 251.341 14.0696C269.765 -2.47388 295.933 -4.65461 308.04 8.73056C343.157 47.7581 334.811 132.957 345.338 169.278C359.927 145.59 386.998 104.156 420.235 74.1525C453.548 44.1486 504.08 10.9113 537.393 47.9085C577.774 92.7263 528.219 164.69 455.578 231.917C532.43 192.89 611.538 213.193 641.617 246.581C665.229 272.749 666.958 287.939 641.767 310.574C615.448 334.261 525.436 340.879 478.212 333.96C500.396 340.954 561.155 388.93 584.617 415.023C601.311 433.522 621.464 484.28 596.724 506.539C554.463 544.664 433.771 446.531 418.881 444.125L418.957 444.05ZM414.445 427.431C480.919 459.691 564.013 511.126 581.083 495.786C589.43 488.266 580.631 456.533 551.831 424.573C523.03 392.615 465.053 335.314 409.256 334.111C406.549 330.2 404.669 326.365 406.098 322.681C438.207 315.988 593.415 332.456 624.472 304.483C645.452 285.533 637.932 273.577 621.614 255.529C598.529 229.887 485.883 216.727 433.395 264.102C422.04 274.329 420.16 277.487 409.106 289.97C402.639 286.285 396.924 280.796 401.586 273.727C429.334 231.692 565.818 114.308 522.955 66.8583C501.373 42.8703 474.904 58.9626 440.99 89.4928C407.301 119.873 362.709 162.66 354.512 193.792C349.474 212.817 350.677 228.232 348.572 240.565C345.714 243.046 339.398 242.294 335.036 241.317C315.635 191.31 317.59 64.6024 287.812 31.5906C283.451 26.778 269.539 23.6197 262.621 29.9363C249.988 41.2911 244.799 62.1961 242.543 92.8015C238.858 143.184 232.467 192.589 251.266 220.036C255.176 225.751 263.523 237.482 269.539 246.13C265.554 252.371 260.515 257.484 254.499 261.019C216.825 244.024 84.7033 120.775 62.3696 140.928C47.5557 154.313 47.3301 197.401 71.3933 224.097C96.2085 251.694 151.404 302.528 171.933 308.619C192.461 314.71 208.178 312.078 225.097 307.942C227.504 310.348 228.331 316.063 228.556 319.522C177.196 347.872 71.5437 360.204 49.4356 380.132C32.8169 395.096 28.0795 423.22 43.4198 440.29C65.9039 465.255 160.427 441.117 191.108 413.519C221.789 385.922 220.736 383.516 242.242 369.002C244.122 369.153 248.86 374.116 250.213 376.071C202.914 466.233 121.249 543.762 144.937 570.081C164.638 591.963 222.465 572.487 249.988 547.597C277.585 522.782 310.973 458.563 295.858 403.894C298.791 402.841 302.25 401.337 308.491 402.089C327.065 422.694 296.009 590.535 334.66 633.472C350.076 650.542 383.012 652.648 400.157 637.232C430.311 610.086 407.978 463.225 387.449 440.44C375.192 426.829 359.927 424.799 352.482 413.971C354.362 409.91 356.016 409.985 358.723 406.752C379.102 416.151 393.841 417.58 414.445 427.581V427.431Z" fill="#A4AEBF" fill-opacity="0.24"/>
<path d="M375.191 346.743C383.312 339.449 383.538 323.357 378.65 317.868C373.461 312.077 358.121 313.055 354.512 316.288C343.834 325.914 342.856 336.667 352.857 347.871C358.647 354.263 366.092 354.94 375.191 346.743Z" fill="#A4AEBF" fill-opacity="0.24"/>
<path d="M369.325 308.543C375.566 302.903 379.176 282.75 375.265 278.388C369.475 271.997 360.677 273.726 355.263 278.614C346.164 286.81 343.682 300.496 349.924 307.415C358.421 316.889 362.632 314.709 369.4 308.618L369.325 308.543Z" fill="#A4AEBF" fill-opacity="0.24"/>
<path d="M326.388 294.331C335.336 286.285 334.434 276.66 328.493 270.043C323.305 264.328 311.95 270.193 310.145 271.847C303.904 277.487 298.715 283.052 307.588 292.827C312.852 298.693 319.244 300.723 326.388 294.331Z" fill="#A4AEBF" fill-opacity="0.24"/>
<path d="M346.613 357.421C338.116 347.947 325.934 345.991 317.963 353.21C309.992 360.354 312.473 375.319 319.166 382.838C325.859 390.283 338.793 389.982 343.38 385.846C351.351 378.702 354.584 366.22 346.613 357.421Z" fill="#A4AEBF" fill-opacity="0.24"/>
<path d="M292.922 363.512C299.013 358.023 299.69 345.766 295.028 340.652C290.365 335.464 281.943 338.772 279.763 340.727C277.582 342.683 272.844 356.519 278.635 362.911C284.124 369.002 288.034 367.949 292.997 363.512H292.922Z" fill="#A4AEBF" fill-opacity="0.24"/>
<path d="M291.872 327.568C298.791 321.327 304.28 303.204 295.557 293.579C290.519 287.939 282.247 284.555 273.524 292.451C264.049 301.023 263.072 315.762 271.043 324.635C278.563 332.982 286.609 332.381 291.872 327.643V327.568Z" fill="#A4AEBF" fill-opacity="0.24"/>
</svg>
